<svg width="35" height="35" viewBox="0 0 35 35" fill="none" xmlns="http://www.w3.org/2000/svg">
<path fill-rule="evenodd" clip-rule="evenodd" d="M30.6251 8.75H4.37512V13.125C5.22884 13.125 5.6557 13.125 5.99629 13.2532C6.53532 13.4561 6.96072 13.8815 7.1636 14.4205C7.29179 14.7611 7.29179 15.1879 7.29179 16.0417V24.625C7.29179 27.4534 7.29179 28.8676 8.17047 29.7463C9.04915 30.625 10.4634 30.625 13.2918 30.625H21.7085C24.5369 30.625 25.9511 30.625 26.8298 29.7463C27.7085 28.8676 27.7085 27.4534 27.7085 24.625V16.0417C27.7085 15.1879 27.7085 14.7611 27.8366 14.4205C28.0395 13.8815 28.4649 13.4561 29.004 13.2532C29.3445 13.125 29.7714 13.125 30.6251 13.125V8.75ZM14.8543 16.0417C14.8543 15.4894 14.4066 15.0417 13.8543 15.0417C13.302 15.0417 12.8543 15.4894 12.8543 16.0417V23.3333C12.8543 23.8856 13.302 24.3333 13.8543 24.3333C14.4066 24.3333 14.8543 23.8856 14.8543 23.3333V16.0417ZM22.146 16.0417C22.146 15.4894 21.6982 15.0417 21.146 15.0417C20.5937 15.0417 20.146 15.4894 20.146 16.0417V23.3333C20.146 23.8856 20.5937 24.3333 21.146 24.3333C21.6982 24.3333 22.146 23.8856 22.146 23.3333V16.0417Z" fill="#222222"/>
<g clip-path="url(#clip0_156_16)">
<path fill-rule="evenodd" clip-rule="evenodd" d="M30.6251 8.75H4.37512V13.125C5.22884 13.125 5.6557 13.125 5.99629 13.2532C6.53532 13.4561 6.96072 13.8815 7.1636 14.4205C7.29179 14.7611 7.29179 15.1879 7.29179 16.0417V24.625C7.29179 27.4534 7.29179 28.8676 8.17047 29.7463C9.04915 30.625 10.4634 30.625 13.2918 30.625H21.7085C24.5369 30.625 25.9511 30.625 26.8298 29.7463C27.7085 28.8676 27.7085 27.4534 27.7085 24.625V16.0417C27.7085 15.1879 27.7085 14.7611 27.8366 14.4205C28.0395 13.8815 28.4649 13.4561 29.004 13.2532C29.3445 13.125 29.7714 13.125 30.6251 13.125V8.75ZM14.8543 16.0417C14.8543 15.4894 14.4066 15.0417 13.8543 15.0417C13.302 15.0417 12.8543 15.4894 12.8543 16.0417V23.3333C12.8543 23.8856 13.302 24.3333 13.8543 24.3333C14.4066 24.3333 14.8543 23.8856 14.8543 23.3333V16.0417ZM22.146 16.0417C22.146 15.4894 21.6982 15.0417 21.146 15.0417C20.5937 15.0417 20.146 15.4894 20.146 16.0417V23.3333C20.146 23.8856 20.5937 24.3333 21.146 24.3333C21.6982 24.3333 22.146 23.8856 22.146 23.3333V16.0417Z" fill="#222222"/>
<g clip-path="url(#clip1_156_16)">
<path fill-rule="evenodd" clip-rule="evenodd" d="M30.6251 8.75H4.37512V13.125C5.22884 13.125 5.6557 13.125 5.99629 13.2532C6.53532 13.4561 6.96072 13.8815 7.1636 14.4205C7.29179 14.7611 7.29179 15.1879 7.29179 16.0417V24.625C7.29179 27.4534 7.29179 28.8676 8.17047 29.7463C9.04915 30.625 10.4634 30.625 13.2918 30.625H21.7085C24.5369 30.625 25.9511 30.625 26.8298 29.7463C27.7085 28.8676 27.7085 27.4534 27.7085 24.625V16.0417C27.7085 15.1879 27.7085 14.7611 27.8366 14.4205C28.0395 13.8815 28.4649 13.4561 29.004 13.2532C29.3445 13.125 29.7714 13.125 30.6251 13.125V8.75ZM14.8543 16.0417C14.8543 15.4894 14.4066 15.0417 13.8543 15.0417C13.302 15.0417 12.8543 15.4894 12.8543 16.0417V23.3333C12.8543 23.8856 13.302 24.3333 13.8543 24.3333C14.4066 24.3333 14.8543 23.8856 14.8543 23.3333V16.0417ZM22.146 16.0417C22.146 15.4894 21.6982 15.0417 21.146 15.0417C20.5937 15.0417 20.146 15.4894 20.146 16.0417V23.3333C20.146 23.8856 20.5937 24.3333 21.146 24.3333C21.6982 24.3333 22.146 23.8856 22.146 23.3333V16.0417Z" fill="#222222"/>
</g>
</g>
<path d="M14.6827 4.91544C14.8489 4.7604 15.215 4.6234 15.7244 4.52568C16.2338 4.42796 16.8579 4.375 17.5 4.375C18.142 4.375 18.7661 4.42796 19.2755 4.52568C19.7849 4.62339 20.1511 4.7604 20.3172 4.91544" stroke="#222222" stroke-width="2" stroke-linecap="round"/>
<defs>
<clipPath id="clip0_156_16">
<rect width="27" height="23" fill="white" transform="translate(4 8)"/>
</clipPath>
<clipPath id="clip1_156_16">
<rect width="27" height="23" fill="white" transform="translate(4 8)"/>
</clipPath>
</defs>
</svg>
