<svg width="35" height="35" viewBox="0 0 35 35" fill="none" xmlns="http://www.w3.org/2000/svg">
<path fill-rule="evenodd" clip-rule="evenodd" d="M18.888 10.2786L21.9633 7.20343C23.2966 5.8701 23.9633 5.20343 24.7917 5.20343C25.6201 5.20343 26.2868 5.8701 27.6201 7.20343L27.7966 7.37991C29.1299 8.71324 29.7966 9.37991 29.7966 10.2083C29.7966 11.0368 29.1299 11.7034 27.7966 13.0368L24.7534 16.0799C22.3275 14.6756 20.3102 12.6733 18.888 10.2786ZM17.4338 11.7329L6.68973 22.477C6.26467 22.902 6.05214 23.1145 5.9124 23.3756C5.77267 23.6367 5.71372 23.9315 5.59583 24.5209L4.5221 29.8896C4.45558 30.2222 4.42232 30.3885 4.51693 30.4831C4.61154 30.5777 4.77784 30.5444 5.11045 30.4779L10.4791 29.4042L10.4791 29.4042C11.0686 29.2863 11.3633 29.2274 11.6244 29.0876C11.8855 28.9479 12.098 28.7354 12.5231 28.3103L23.2954 17.538C20.9203 16.0694 18.9173 14.0803 17.4338 11.7329Z" fill="#222222"/>
</svg>
