<svg width="99" height="97" viewBox="0 0 99 97" fill="none" xmlns="http://www.w3.org/2000/svg">
<path fill-rule="evenodd" clip-rule="evenodd" d="M9.42157 9.2549C8.25 10.4265 8.25 12.3121 8.25 16.0833V80.9167C8.25 84.6879 8.25 86.5735 9.42157 87.7451C10.5931 88.9167 12.4788 88.9167 16.25 88.9167H82.75C86.5212 88.9167 88.4069 88.9167 89.5784 87.7451C90.75 86.5735 90.75 84.6879 90.75 80.9167V16.0833C90.75 12.3121 90.75 10.4265 89.5784 9.2549C89.3203 8.99676 89.0275 8.7955 88.6875 8.63859V68.7083H85.766C84.154 68.7083 83.3479 68.7083 82.6211 68.4116C81.8943 68.1149 81.3186 67.5508 80.1672 66.4226L68.7994 55.2845C67.4775 53.9893 66.8165 53.3417 66 53.3417C65.1835 53.3417 64.5225 53.9893 63.2006 55.2845L63.2006 55.2845L51.5705 66.6797L51.5704 66.6797C50.6303 67.6008 50.1603 68.0614 49.6449 67.9614C49.1296 67.8614 48.8658 67.2585 48.3384 66.0526L39.4483 45.7281C38.3933 43.3163 37.8659 42.1104 36.8352 41.9105C35.8045 41.7105 34.8643 42.6316 32.9841 44.4739L14.4375 62.6458V8.0896C11.8408 8.11919 10.3882 8.2883 9.42157 9.2549Z" fill="#5396B8"/>
<path d="M16.25 9.08334H82.75C84.6639 9.08334 85.9987 9.08547 87.0058 9.22087C87.9842 9.35241 88.5023 9.59301 88.8713 9.96202C89.2403 10.331 89.4809 10.8491 89.6125 11.8275C89.7479 12.8346 89.75 14.1695 89.75 16.0833V80.9167C89.75 82.8306 89.7479 84.1654 89.6125 85.1725C89.4809 86.1509 89.2403 86.669 88.8713 87.038C88.5023 87.407 87.9842 87.6476 87.0058 87.7791C85.9987 87.9146 84.6639 87.9167 82.75 87.9167H16.25C14.3361 87.9167 13.0013 87.9146 11.9942 87.7791C11.0158 87.6476 10.4977 87.407 10.1287 87.038C9.75966 86.669 9.51907 86.1509 9.38753 85.1725C9.25212 84.1654 9.25 82.8306 9.25 80.9167V16.0834C9.25 14.1695 9.25212 12.8346 9.38753 11.8275C9.51907 10.8491 9.75966 10.331 10.1287 9.96202C10.4977 9.59301 11.0158 9.35241 11.9942 9.22087C13.0013 9.08547 14.3361 9.08334 16.25 9.08334Z" stroke="#5396B8" stroke-width="2"/>
<ellipse cx="61.875" cy="36.375" rx="8.25" ry="8.08333" fill="#5396B8"/>
</svg>
