<svg width="52" height="52" viewBox="0 0 52 52" fill="none" xmlns="http://www.w3.org/2000/svg">
<path d="M12.7297 11.7612C13.172 13.3737 14.0061 14.7013 15.0479 15.6119C16.0901 16.5236 17.3438 17.0316 18.6463 17.0326C19.3197 17.0326 20.0043 16.8956 20.6703 16.6117L20.6726 16.6108C21.9655 16.0596 23.0304 15.0204 23.761 13.7215C24.4925 12.4236 24.9005 10.861 24.9009 9.23714C24.9009 8.39842 24.7909 7.54326 24.5621 6.71124C24.1202 5.10073 23.2864 3.77309 22.2451 2.86146C21.2033 1.94983 19.95 1.44083 18.6467 1.44083C17.9741 1.44083 17.288 1.57702 16.6189 1.86366C15.3263 2.41477 14.2615 3.45396 13.5316 4.75202C12.7998 6.04997 12.3917 7.6124 12.3914 9.23629C12.3914 10.0732 12.5009 10.9254 12.7283 11.7555L12.7297 11.7612ZM16.1089 7.00834C16.475 6.36228 16.9919 5.85511 17.641 5.57809L17.5053 5.63566L17.643 5.57614C17.978 5.43325 18.3137 5.36716 18.6467 5.36716C19.2878 5.36619 19.9147 5.61935 20.4334 6.07468C20.9522 6.53098 21.3587 7.1752 21.5818 7.98338V7.98423C21.6972 8.40317 21.7505 8.82308 21.7505 9.23714C21.7509 10.0367 21.5479 10.8179 21.1833 11.465C20.8172 12.1121 20.3003 12.6182 19.6512 12.8962H19.6534C19.3157 13.0391 18.9781 13.1052 18.6462 13.1052C18.0044 13.1061 17.3776 12.8531 16.8587 12.3988C16.3411 11.9444 15.9353 11.3021 15.712 10.495L15.7104 10.4902C15.595 10.0693 15.5415 9.65036 15.5415 9.23629C15.5413 8.43676 15.7444 7.65548 16.1089 7.00834Z" fill="black" stroke="black" stroke-width="0.390625"/>
<path d="M12.7293 11.7612C12.729 11.7593 12.729 11.7573 12.7281 11.7554L12.6869 11.6059L12.7293 11.7612Z" fill="black" stroke="black" stroke-width="0.390625"/>
<path d="M31.5633 16.1709L31.3502 16.0799L31.5648 16.1719C32.2321 16.4566 32.917 16.5928 33.5892 16.5928C34.8925 16.5918 36.1459 16.0838 37.188 15.1721C38.2298 14.2615 39.064 12.9337 39.5062 11.3223C39.735 10.4893 39.8447 9.63516 39.8447 8.79644C39.8443 7.17255 39.4363 5.61 38.7044 4.3112C37.9742 3.01325 36.9086 1.97309 35.6152 1.42283L35.6159 1.42368C34.9491 1.13802 34.2635 1 33.5892 1C32.2863 1.00097 31.0326 1.50998 29.9908 2.42161C28.9494 3.33226 28.1153 4.65991 27.6738 6.27236C27.4449 7.10353 27.335 7.95857 27.335 8.79741C27.3354 10.4213 27.7434 11.9839 28.4748 13.2817C29.2055 14.5795 30.2703 15.6197 31.5633 16.1709ZM30.6541 7.54426C30.8771 6.73426 31.2836 6.09003 31.8024 5.63373C32.3212 5.17925 32.9476 4.92621 33.5891 4.92621C33.9202 4.92621 34.2571 4.9934 34.5944 5.13702L34.5952 5.13799C35.2444 5.41501 35.7608 5.92122 36.127 6.56824C36.4916 7.21527 36.6946 7.99654 36.6942 8.79607C36.6942 9.21026 36.6407 9.63005 36.5257 10.05C36.3027 10.8581 35.8959 11.5022 35.377 11.9587C34.8583 12.4131 34.2309 12.6661 33.5891 12.6661C33.2568 12.6661 32.9196 12.5989 32.5831 12.4561L32.7962 12.5471L32.5846 12.4571C31.9355 12.1781 31.4186 11.6711 31.0525 11.0249C30.688 10.3777 30.4849 9.59646 30.4853 8.79705C30.4853 8.3831 30.5388 7.96319 30.6541 7.54426Z" fill="black" stroke="black" stroke-width="0.390625"/>
<path d="M49.8595 19.4751C49.1293 18.1772 48.0635 17.1372 46.7703 16.5869H46.7711C46.1042 16.3022 45.4185 16.1641 44.7444 16.165C43.4415 16.165 42.1878 16.6731 41.146 17.5857C40.1046 18.4963 39.2705 19.8249 38.829 21.4364C38.6002 22.2676 38.4902 23.1226 38.4902 23.9625C38.4905 25.5854 38.8986 27.1479 39.6301 28.4459C40.3608 29.7448 41.4257 30.7839 42.7185 31.3351L42.7201 31.3361C43.3873 31.6199 44.0722 31.7569 44.7445 31.7569C46.0478 31.756 47.3011 31.2479 48.3433 30.3362C49.3851 29.4255 50.2192 28.0979 50.6615 26.4854C50.8903 25.6534 51 24.7992 51 23.9604C50.9994 22.3366 50.5914 20.7741 49.8595 19.4751ZM47.6809 25.2144C47.4579 26.0224 47.051 26.6667 46.5322 27.123C46.0134 27.5773 45.3861 27.8304 44.7443 27.8294C44.412 27.8294 44.0748 27.7633 43.7383 27.6204H43.7398C43.0907 27.3424 42.5738 26.8354 42.2077 26.1883C41.8431 25.5423 41.6401 24.761 41.6405 23.9625C41.6405 23.5483 41.6939 23.1285 41.8093 22.7086C42.0323 21.8986 42.4388 21.2543 42.9576 20.798C43.4763 20.3438 44.1028 20.0906 44.7443 20.0916C45.0754 20.0916 45.4123 20.1578 45.7495 20.3016L45.7503 20.3026C46.3994 20.5796 46.9159 21.0866 47.282 21.7328C47.6465 22.3788 47.8496 23.1612 47.8493 23.9606C47.8494 24.3746 47.7959 24.7945 47.6809 25.2144Z" fill="black" stroke="black" stroke-width="0.390625"/>
<path d="M13.1712 26.4854C13.4 25.6534 13.5097 24.7992 13.5097 23.9604C13.5093 22.3365 13.1012 20.7739 12.3694 19.475C11.6391 18.1771 10.5735 17.137 9.28014 16.5868L9.2778 16.5858C8.61218 16.3021 7.92722 16.1639 7.25417 16.1649C5.95125 16.1649 4.69754 16.673 3.65575 17.5856C2.61445 18.4963 1.78027 19.8249 1.33877 21.4364V21.4356C1.10996 22.2676 1 23.1226 1 23.9625C1.00039 25.5854 1.4084 27.1479 2.13984 28.4459C2.8706 29.7448 3.93544 30.7839 5.2283 31.3351L5.22987 31.3361C5.89705 31.6199 6.58201 31.7569 7.25427 31.7569C8.55759 31.756 9.8109 31.2479 10.8531 30.3362C11.8949 29.4255 12.7291 28.0979 13.1712 26.4854ZM10.1908 25.2144C9.96774 26.0224 9.56081 26.6667 9.04206 27.123C8.52331 27.5773 7.89607 27.8304 7.25417 27.8294C6.92195 27.8294 6.58465 27.7633 6.24812 27.6204H6.24969C5.60057 27.3424 5.08368 26.8354 4.71756 26.1883C4.35292 25.5423 4.14989 24.761 4.15038 23.9625C4.15038 23.5473 4.2038 23.1285 4.31913 22.7086L4.3203 22.7047C4.54374 21.8966 4.9494 21.2534 5.46737 20.7979C5.98621 20.3437 6.61267 20.0905 7.25408 20.0915C7.58523 20.0915 7.92204 20.1577 8.25935 20.3015L8.55739 20.429L8.26013 20.3024C8.90925 20.5794 9.42575 21.0865 9.79196 21.7327C10.1564 22.3787 10.3595 23.1611 10.3591 23.9605C10.3592 24.3746 10.3058 24.7945 10.1908 25.2144Z" fill="black" stroke="black" stroke-width="0.390625"/>
<path d="M34.0541 23.3489C32.8512 22.1525 31.5483 21.1614 30.1784 20.4578C28.8093 19.756 27.3685 19.3419 25.9071 19.3419C23.9573 19.3438 22.0495 20.0742 20.2893 21.2542C17.6488 23.0305 15.3064 25.822 13.577 29.066C11.8558 32.3109 10.7319 36.0256 10.7251 39.7469C10.7251 41.0985 10.8782 42.4482 11.2173 43.751C11.5753 45.1286 12.0557 46.3047 12.6503 47.2807C13.5387 48.7493 14.6904 49.729 15.8848 50.2792C17.082 50.8342 18.3095 50.9992 19.4848 51C20.7778 50.9992 22.0214 50.7987 23.1336 50.6137C24.2419 50.4258 25.2291 50.2589 25.9072 50.2629C26.5847 50.259 27.5723 50.4259 28.6803 50.6137C29.7929 50.7987 31.0365 50.999 32.3295 51C33.8908 50.9982 35.5688 50.7077 37.1017 49.5841C37.8635 49.0244 38.5711 48.2565 39.1641 47.2807C39.7586 46.3048 40.239 45.1286 40.5971 43.752C40.9362 42.4483 41.0892 41.0987 41.0892 39.747C41.0877 37.267 40.5805 34.7871 39.7402 32.4501C38.4739 28.9462 36.4573 25.7435 34.0541 23.3489ZM37.6003 42.5404C37.3334 43.566 37.0065 44.3282 36.6542 44.9072C36.1224 45.7709 35.539 46.2627 34.8263 46.6011C34.1159 46.9336 33.2642 47.0746 32.3293 47.0737C31.3029 47.0746 30.1907 46.906 29.0992 46.7229C28.004 46.5417 26.9399 46.3405 25.907 46.3366C24.8741 46.3404 23.8099 46.5417 22.7147 46.7218C21.6233 46.9058 20.5111 47.0746 19.4846 47.0737C18.2329 47.0756 17.1511 46.8234 16.315 46.2032C15.8924 45.8898 15.5136 45.4853 15.1597 44.9072C14.8075 44.3282 14.4806 43.5662 14.2137 42.5404C13.9859 41.6641 13.8752 40.7305 13.8752 39.7469C13.8737 37.9467 14.254 35.9825 14.9481 34.0584C15.9838 31.1721 17.7251 28.4007 19.7241 26.4183C20.7224 25.4252 21.7819 24.6276 22.834 24.0889C23.887 23.5483 24.9276 23.2674 25.9068 23.2683C27.2109 23.2664 28.6307 23.7707 30.0317 24.712C32.1329 26.1153 34.1584 28.4965 35.6113 31.2353C37.0723 33.9712 37.9452 37.0483 37.9384 39.7468C37.9388 40.7305 37.8279 41.6641 37.6003 42.5404Z" fill="black" stroke="black" stroke-width="0.390625"/>
</svg>
