<svg width="50" height="50" viewBox="0 0 50 50" fill="none" xmlns="http://www.w3.org/2000/svg">
<path d="M18.6914 13.5283C21.5313 12.2842 23.0456 8.33173 22.0725 4.70057C21.1006 1.07052 18.01 -0.867368 15.1695 0.377027C12.3295 1.62017 10.8152 5.57237 11.7875 9.20366C12.7603 12.836 15.851 14.7705 18.6914 13.5283Z" fill="black"/>
<path d="M9.99938 24.3466V24.3478C11.6308 21.1244 10.9092 16.8203 8.38962 14.735C5.86911 12.6509 2.50358 13.5718 0.872232 16.7939V16.7952C-0.75814 20.0173 -0.036558 24.3205 2.48307 26.4044C5.00348 28.4908 8.36852 27.5688 9.99938 24.3466Z" fill="black"/>
<path d="M31.3085 13.5283C34.149 14.7705 37.2396 12.836 38.2123 9.20356C39.1846 5.57239 37.6703 1.62007 34.8304 0.376922C31.99 -0.867472 28.8993 1.07054 27.9275 4.70046C26.9543 8.33176 28.4686 12.2842 31.3085 13.5283Z" fill="black"/>
<path d="M25 16.9449C16.4086 16.9449 6.92888 32.1553 9.67322 42.9781C12.3228 53.4272 20.6011 49.1208 25 49.1208C29.3989 49.1208 37.677 53.4272 40.3266 42.9781C43.0711 32.1553 33.5914 16.9449 25 16.9449Z" fill="black"/>
<path d="M49.1278 16.795V16.7938C47.4965 13.5716 44.1312 12.6508 41.6107 14.7349C39.091 16.8201 38.3694 21.1243 40.0007 24.3477V24.3464C41.6315 27.5686 44.9966 28.4906 47.5171 26.4043C50.0366 24.3203 50.7583 20.0172 49.1278 16.795Z" fill="black"/>
</svg>
