<svg width="52" height="52" viewBox="0 0 52 52" fill="none" xmlns="http://www.w3.org/2000/svg">
<g filter="url(#filter0_d_158_117)">
<path d="M22.8939 4.88432L22.8939 4.8842C22.4977 3.42063 21.6791 2.33137 20.71 1.73069C19.7476 1.13422 18.6244 1.00806 17.5447 1.47595L17.5446 1.47602C15.3526 2.42515 14.0703 5.54552 14.8739 8.5145C15.2704 9.97905 16.0892 11.068 17.0584 11.6685C18.0208 12.2647 19.1441 12.3907 20.2239 11.9237L22.8939 4.88432ZM22.8939 4.88432C23.6982 7.85304 22.416 10.9737 20.224 11.9237L22.8939 4.88432Z" fill="#5396B8" stroke="black"/>
<path d="M12.3845 21.504L12.384 21.5038C11.7262 22.7896 10.7396 23.5787 9.70658 23.8586C8.68021 24.1366 7.56035 23.9264 6.57943 23.1231L6.57928 23.123C4.58502 21.4914 3.96814 18.0382 5.30053 15.4334L5.33523 15.3655C5.99295 14.1194 6.96322 13.353 7.9785 13.078C9.00511 12.7999 10.1251 13.01 11.106 13.8122L12.3845 21.504ZM12.3845 21.504C13.7171 18.8983 13.1001 15.4449 11.1062 13.8124L12.3845 21.504Z" fill="#5396B8" stroke="black"/>
<path d="M34.3234 1.47587L34.3235 1.47593C36.5155 2.42506 37.7977 5.54554 36.9941 8.51441C36.5976 9.97901 35.7788 11.068 34.8096 11.6685C33.8473 12.2647 32.724 12.3907 31.6442 11.9237C29.4521 10.9738 28.1699 7.85309 28.9742 4.88423L28.9743 4.88412C29.3704 3.4206 30.189 2.33134 31.1582 1.73064C32.1206 1.13416 33.2438 1.00798 34.3234 1.47587Z" fill="#5396B8" stroke="black"/>
<path d="M38.8394 37.7088L39.3238 37.8329L38.8394 37.7088C38.2779 39.8993 37.4333 41.2583 36.4682 42.094C35.5064 42.9268 34.3769 43.2816 33.1636 43.3749C31.9402 43.4691 30.6558 43.296 29.4036 43.0885C29.2043 43.0555 29.0046 43.0214 28.8057 42.9874C27.7849 42.8128 26.7829 42.6414 25.934 42.6414C25.0851 42.6414 24.0831 42.8128 23.0622 42.9874C22.8633 43.0214 22.6637 43.0555 22.4644 43.0885C21.2122 43.296 19.9277 43.4691 18.7043 43.3749C17.491 43.2816 16.3615 42.9268 15.3997 42.094C14.4346 41.2583 13.59 39.8993 13.0285 37.7088C11.8743 33.2061 13.2863 27.7216 15.9526 23.3364C17.2813 21.151 18.9062 19.2657 20.6428 17.9316C22.3827 16.595 24.203 15.8351 25.934 15.8351C27.665 15.8351 29.4852 16.595 31.2252 17.9316C32.9618 19.2657 34.5867 21.151 35.9154 23.3364C38.5817 27.7216 39.9937 33.2061 38.8394 37.7088Z" fill="#5396B8" stroke="black"/>
<path d="M43.8898 13.0779C44.905 13.3528 45.8752 14.1193 46.5329 15.3654L46.5676 15.4333C47.9001 18.0382 47.2832 21.4913 45.289 23.1229L45.2888 23.123C44.3079 23.9263 43.188 24.1365 42.1616 23.8585C41.1285 23.5786 40.142 22.7895 39.4842 21.5037L39.4837 21.5039C38.1512 18.8981 38.7682 15.4446 40.7623 13.8121C41.7432 13.0099 42.8632 12.7998 43.8898 13.0779Z" fill="#5396B8" stroke="black"/>
</g>
<defs>
<filter id="filter0_d_158_117" x="0.0933838" y="0.69136" width="51.6814" height="51.2098" filterUnits="userSpaceOnUse" color-interpolation-filters="sRGB">
<feFlood flood-opacity="0" result="BackgroundImageFix"/>
<feColorMatrix in="SourceAlpha" type="matrix" values="0 0 0 0 0 0 0 0 0 0 0 0 0 0 0 0 0 0 127 0" result="hardAlpha"/>
<feOffset dy="4"/>
<feGaussianBlur stdDeviation="2"/>
<feComposite in2="hardAlpha" operator="out"/>
<feColorMatrix type="matrix" values="0 0 0 0 0 0 0 0 0 0 0 0 0 0 0 0 0 0 0.25 0"/>
<feBlend mode="normal" in2="BackgroundImageFix" result="effect1_dropShadow_158_117"/>
<feBlend mode="normal" in="SourceGraphic" in2="effect1_dropShadow_158_117" result="shape"/>
</filter>
</defs>
</svg>
