<svg width="45" height="44" viewBox="0 0 45 44" fill="none" xmlns="http://www.w3.org/2000/svg">
<path d="M10.7474 9.58378C11.1338 10.9773 11.8625 12.1246 12.7726 12.9115C13.6831 13.6994 14.7783 14.1385 15.9163 14.1393C16.5046 14.1393 17.1027 14.0209 17.6845 13.7756L17.6865 13.7747C18.816 13.2985 19.7463 12.4004 20.3846 11.2779C21.0236 10.1562 21.3801 8.80584 21.3804 7.40247C21.3804 6.67765 21.2844 5.93863 21.0845 5.21959C20.6984 3.8278 19.97 2.68045 19.0603 1.89262C18.1502 1.10479 17.0552 0.664915 15.9166 0.664915C15.329 0.664915 14.7296 0.782616 14.1451 1.03032C13.0158 1.5066 12.0856 2.40466 11.4479 3.52644C10.8086 4.64813 10.4521 5.99837 10.4518 7.40173C10.4518 8.12498 10.5475 8.86148 10.7461 9.57883L10.7474 9.58378ZM13.6995 5.47634C14.0194 4.91803 14.471 4.47973 15.038 4.24033L14.9195 4.29008L15.0398 4.23864C15.3324 4.11516 15.6257 4.05804 15.9166 4.05804C16.4767 4.0572 17.0243 4.27598 17.4775 4.66948C17.9307 5.06381 18.2859 5.62055 18.4808 6.31897V6.31971C18.5816 6.68175 18.6282 7.04464 18.6282 7.40247C18.6285 8.09342 18.4511 8.7686 18.1327 9.32776C17.8128 9.88702 17.3613 10.3244 16.7942 10.5646H16.7961C16.5011 10.6881 16.2062 10.7452 15.9162 10.7452C15.3555 10.7461 14.8079 10.5274 14.3546 10.1347C13.9024 9.74208 13.5479 9.18702 13.3527 8.48955L13.3514 8.48534C13.2505 8.12161 13.2039 7.75957 13.2039 7.40173C13.2037 6.71078 13.3811 6.03561 13.6995 5.47634Z" fill="#865B52" stroke="black" stroke-width="0.390625"/>
<path d="M10.7468 9.58378C10.7465 9.5821 10.7465 9.58042 10.7457 9.57873L10.71 9.44957L10.7468 9.58378Z" fill="#865B52" stroke="black" stroke-width="0.390625"/>
<path d="M27.2008 13.3946L27.0146 13.3159L27.2022 13.3954C27.7851 13.6415 28.3834 13.7592 28.9707 13.7592C30.1093 13.7583 31.2043 13.3193 32.1148 12.5315C33.0249 11.7445 33.7536 10.597 34.14 9.2045C34.3398 8.48462 34.4357 7.74644 34.4357 7.02161C34.4353 5.61825 34.0789 4.2679 33.4395 3.14548C32.8015 2.0238 31.8706 1.1249 30.7407 0.64936L30.7413 0.650096C30.1587 0.40323 29.5597 0.283951 28.9707 0.283951C27.8325 0.284792 26.7372 0.724672 25.8271 1.5125C24.9173 2.29949 24.1886 3.44683 23.8029 4.84031C23.6029 5.55861 23.5068 6.29753 23.5068 7.02246C23.5072 8.42582 23.8636 9.77617 24.5026 10.8977C25.141 12.0193 26.0712 12.9182 27.2008 13.3946ZM26.4065 5.93948C26.6014 5.23948 26.9565 4.68274 27.4097 4.28841C27.8629 3.89565 28.4102 3.67697 28.9706 3.67697C29.2599 3.67697 29.5542 3.73504 29.8489 3.85915L29.8496 3.85999C30.4167 4.09939 30.8679 4.53685 31.1878 5.09601C31.5063 5.65517 31.6837 6.33034 31.6833 7.0213C31.6833 7.37924 31.6366 7.74202 31.5361 8.1049C31.3413 8.80332 30.9859 9.35996 30.5326 9.7544C30.0794 10.1472 29.5313 10.3657 28.9706 10.3657C28.6803 10.3657 28.3857 10.3077 28.0917 10.1843L28.2779 10.263L28.0931 10.1851C27.526 9.94405 27.0744 9.50585 26.7546 8.94743C26.4361 8.38816 26.2587 7.71299 26.2591 7.02214C26.2591 6.66441 26.3058 6.30152 26.4065 5.93948Z" fill="#865B52" stroke="black" stroke-width="0.390625"/>
<path d="M43.185 16.2501C42.547 15.1285 41.6159 14.2297 40.4861 13.7541H40.4868C39.9042 13.5081 39.3052 13.3887 38.7163 13.3896C37.578 13.3896 36.4827 13.8286 35.5726 14.6173C34.6628 15.4042 33.9341 16.5524 33.5484 17.9451C33.3485 18.6634 33.2524 19.4023 33.2524 20.1281C33.2527 21.5306 33.6092 22.8809 34.2482 24.0026C34.8866 25.1251 35.8169 26.0231 36.9464 26.4995L36.9478 26.5003C37.5306 26.7456 38.129 26.864 38.7163 26.864C39.855 26.8632 40.9499 26.4242 41.8604 25.6362C42.7705 24.8492 43.4992 23.7019 43.8856 22.3084C44.0855 21.5894 44.1813 20.8512 44.1813 20.1263C44.1807 18.723 43.8243 17.3727 43.185 16.2501ZM41.2817 21.21C41.0868 21.9083 40.7314 22.465 40.2781 22.8594C39.8249 23.252 39.2769 23.4707 38.7162 23.4699C38.4258 23.4699 38.1312 23.4127 37.8373 23.2893H37.8386C37.2715 23.049 36.82 22.6108 36.5001 22.0517C36.1816 21.4933 36.0043 20.8182 36.0046 20.1281C36.0046 19.7701 36.0513 19.4073 36.152 19.0445C36.3469 18.3445 36.702 17.7877 37.1553 17.3934C37.6084 17.0008 38.1557 16.7821 38.7162 16.7829C39.0054 16.7829 39.2997 16.8401 39.5943 16.9643L39.595 16.9652C40.1621 17.2046 40.6133 17.6428 40.9332 18.2012C41.2516 18.7595 41.429 19.4356 41.4288 20.1265C41.4288 20.4842 41.3821 20.8471 41.2817 21.21Z" fill="#865B52" stroke="black" stroke-width="0.390625"/>
<path d="M11.1331 22.3084C11.333 21.5894 11.4288 20.8512 11.4288 20.1263C11.4285 18.7229 11.0719 17.3726 10.4326 16.25C9.79461 15.1283 8.86366 14.2295 7.73375 13.754L7.7317 13.7532C7.1502 13.508 6.5518 13.3886 5.96381 13.3894C4.82554 13.3894 3.73027 13.8285 2.82013 14.6172C1.91042 15.4042 1.18166 16.5524 0.795957 17.9451V17.9443C0.596064 18.6634 0.5 19.4023 0.5 20.1281C0.500341 21.5306 0.856786 22.8809 1.49579 24.0026C2.1342 25.1251 3.06448 26.0231 4.19396 26.4995L4.19532 26.5003C4.77819 26.7456 5.37659 26.864 5.9639 26.864C7.10251 26.8632 8.19744 26.4242 9.10792 25.6362C10.0181 24.8492 10.7468 23.7019 11.1331 22.3084ZM8.52931 21.21C8.33445 21.9083 7.97895 22.465 7.52575 22.8594C7.07256 23.252 6.52459 23.4707 5.96381 23.4699C5.67357 23.4699 5.37889 23.4127 5.0849 23.2893H5.08627C4.51918 23.049 4.06761 22.6108 3.74776 22.0517C3.4292 21.4933 3.25183 20.8182 3.25225 20.1281C3.25225 19.7693 3.29892 19.4073 3.39968 19.0444L3.4007 19.0411C3.5959 18.3428 3.9503 17.7869 4.40281 17.3933C4.85609 17.0007 5.40338 16.7819 5.96373 16.7828C6.25303 16.7828 6.54728 16.84 6.84196 16.9642L7.10234 17.0745L6.84264 16.9651C7.40973 17.2045 7.86096 17.6427 8.18089 18.2011C8.49928 18.7594 8.67674 19.4355 8.67639 20.1264C8.67648 20.4842 8.62981 20.8471 8.52931 21.21Z" fill="#865B52" stroke="black" stroke-width="0.390625"/>
<path d="M29.3769 19.5978C28.326 18.5639 27.1878 17.7073 25.991 17.0993C24.7949 16.4928 23.5362 16.135 22.2595 16.135C20.5561 16.1366 18.8894 16.7678 17.3516 17.7876C15.0448 19.3227 12.9985 21.7351 11.4876 24.5385C9.98387 27.3427 9.00207 30.5529 8.99609 33.7689C8.99609 34.937 9.12987 36.1034 9.42608 37.2293C9.73884 38.4198 10.1585 39.4361 10.678 40.2796C11.4541 41.5488 12.4603 42.3954 13.5038 42.8709C14.5497 43.3506 15.6221 43.4931 16.6488 43.4938C17.7784 43.4931 18.8649 43.3198 19.8365 43.16C20.8048 42.9976 21.6672 42.8534 22.2596 42.8568C22.8515 42.8535 23.7143 42.9977 24.6822 43.16C25.6542 43.3198 26.7407 43.493 27.8703 43.4938C29.2343 43.4922 30.7002 43.2412 32.0394 42.2702C32.7049 41.7865 33.3231 41.1229 33.8411 40.2796C34.3605 39.4362 34.7802 38.4198 35.093 37.2301C35.3893 36.1035 35.523 34.9371 35.523 33.769C35.5216 31.6258 35.0785 29.4827 34.3445 27.4631C33.2382 24.435 31.4764 21.6672 29.3769 19.5978ZM32.475 36.183C32.2418 37.0694 31.9563 37.7281 31.6484 38.2284C31.1838 38.9748 30.6741 39.3999 30.0515 39.6923C29.4309 39.9796 28.6868 40.1015 27.8701 40.1007C26.9734 40.1015 26.0018 39.9558 25.0482 39.7976C24.0914 39.6409 23.1618 39.4671 22.2594 39.4637C21.357 39.467 20.4273 39.6409 19.4705 39.7966C18.517 39.9556 17.5454 40.1015 16.6487 40.1007C15.5551 40.1024 14.61 39.8844 13.8796 39.3484C13.5104 39.0776 13.1794 38.728 12.8703 38.2284C12.5626 37.7281 12.277 37.0695 12.0438 36.183C11.8448 35.4258 11.7481 34.6189 11.7481 33.7689C11.7468 32.2132 12.079 30.5157 12.6854 28.853C13.5902 26.3586 15.1115 23.9636 16.8578 22.2504C17.73 21.3922 18.6556 20.7029 19.5748 20.2373C20.4946 19.7701 21.4038 19.5273 22.2592 19.5282C23.3985 19.5265 24.6389 19.9623 25.8628 20.7758C27.6985 21.9885 29.4681 24.0464 30.7374 26.4132C32.0137 28.7775 32.7763 31.4368 32.7703 33.7688C32.7707 34.6189 32.6738 35.4258 32.475 36.183Z" fill="#865B52" stroke="black" stroke-width="0.390625"/>
</svg>
